<?xml version="1.0" standalone="no"?>
<!DOCTYPE svg PUBLIC "-//W3C//DTD SVG 20010904//EN"
 "http://www.w3.org/TR/2001/REC-SVG-20010904/DTD/svg10.dtd">
<svg version="1.0" xmlns="http://www.w3.org/2000/svg"
 width="2000.000000pt" height="199.637016pt" viewBox="0 0 2000.000000 199.637016"
 preserveAspectRatio="xMidYMid meet">
<metadata>
Created by potrace 1.12, written by Peter Selinger 2001-2015
</metadata>
<g transform="translate(0.000000,199.637016) scale(0.100000,-0.100000)"
fill="#111B31" stroke="none">
<path d="M4145 1994 c-701 -29 -1199 -71 -1760 -150 -897 -125 -1724 -306
-2267 -497 l-118 -41 0 -653 0 -653 10000 0 10000 0 0 649 0 649 -152 -50
c-797 -258 -1832 -455 -2968 -563 -546 -52 -658 -57 -1451 -62 -775 -5 -1092
2 -1506 32 -1346 100 -2352 267 -3828 634 -1766 439 -2793 603 -4350 692 -178
10 -1424 20 -1600 13z"/>
</g>
</svg>
